# AST/ASF file generated using VICON BodyLanguage
# -----------------------------------------------
:version 1.10
:name VICON
:units
  mass 1.0
  length 0.45
  angle deg
:documentation
   .ast/.asf automatically generated from VICON data using
   VICON BodyBuilder and BodyLanguage model FoxedUp or BRILLIANT.MOD
:root
   order TX TY TZ RX RY RZ
   axis XYZ
   position 0 0 0  
   orientation 0 0 0 
:bonedata
  begin
     id 1 
     name lhipjoint
     direction 0.578396 -0.714046 0.394458 
     length 2.21935 
     axis 0 0 0  XYZ
  end
  begin
     id 2 
     name lfemur
     direction 0.34202 -0.939693 0  
     length 6.39105  
     axis 0 0 20  XYZ
    dof rx ry rz
    limits (-160.0 20.0)
           (-70.0 70.0)
           (-60.0 70.0)
  end
  begin
     id 3 
     name ltibia
     direction 0.34202 -0.939693 0   
     length 6.99037   
     axis 0 0 20   XYZ
    dof rx
    limits (-10.0 170.0)
  end
  begin
     id 4 
     name lfoot
     direction 0.0582372 -0.160005 0.985397   
     length 2.06111   
     axis -90 7.62852e-016 20   XYZ
    dof rx rz
    limits (-45.0 90.0)
           (-70.0 20.0)
  end
  begin
     id 5 
     name ltoes
     direction 1.53556e-011 -4.21875e-011 1   
     length 1.04074   
     axis -90 7.62852e-016 20   XYZ
    dof rx
    limits (-90.0 20.0)
  end
  begin
     id 6 
     name rhipjoint
     direction -0.558179 -0.726269 0.40121   
     length 2.182  
     axis 0 0 0  XYZ 
  end
  begin
     id 7 
     name rfemur
     direction -0.34202 -0.939693 0   
     length 6.51172   
     axis 0 0 -20   XYZ
    dof rx ry rz
    limits (-160.0 20.0)
           (-70.0 70.0)
           (-70.0 60.0)
  end
  begin
     id 8 
     name rtibia
     direction -0.34202 -0.939693 0   
     length 7.02607   
     axis 0 0 -20   XYZ
    dof rx
    limits (-10.0 170.0)
 end
 begin
     id 9 
     name rfoot
     direction -0.0788856 -0.216737 0.973038   
     length 1.96734  
     axis -90 -7.62852e-016 -20   XYZ
    dof rx rz
    limits (-45.0 90.0)
           (-20.0 70.0)
  end
  begin
     id 10 
     name rtoes
     direction -1.53567e-011 -4.21783e-011 1   
     length 0.990825   
     axis -90 -7.62852e-016 -20   XYZ
    dof rx
    limits (-90.0 20.0)
  end
  begin
     id 11 
     name lowerback
     direction 0.00668177 0.999323 -0.0361741   
     length 1.7655   
     axis 0 0 0   XYZ
    dof rx ry rz
    limits (-20.0 45.0)
           (-30.0 30.0)
           (-30.0 30.0)
  end
  begin
     id 12 
     name upperback
     direction -0.00222086 0.99851 0.0545167   
     length 1.74912   
     axis 0 0 0   XYZ
    dof rx ry rz
    limits (-20.0 45.0)
           (-30.0 30.0)
           (-30.0 30.0)
  end
  begin
     id 13 
     name thorax
     direction -0.00733971 0.997496 0.0703443   
     length 1.75715   
     axis 0 0 0   XYZ
    dof rx ry rz
    limits (-20.0 45.0)
           (-30.0 30.0)
           (-30.0 30.0)
  end
  begin
     id 14 
     name lowerneck
     direction 0.0279797 0.994795 0.0979765   
     length 1.46939   
     axis 0 0 0   XYZ
    dof rx ry rz
    limits (-20.0 45.0)
           (-30.0 30.0)
           (-30.0 30.0)
  end
  begin
     id 15 
     name upperneck
     direction 0.00339187 0.976776 -0.214238   
     length 1.48018   
     axis 0 0 0   XYZ
    dof rx ry rz
    limits (-20.0 45.0)
           (-30.0 30.0)
           (-30.0 30.0)
  end
  begin
     id 16
     name head
     direction -0.00263506 0.996603 -0.0823096  
     length 1.4976  
     axis 0 0 0   XYZ
    dof rx ry rz
    limits (-20.0 45.0)
           (-30.0 30.0)
           (-30.0 30.0)
  end
  begin
     id 17 
     name lclavicle
     direction 0.894044 0.44508 -0.0508781  
     length 3.03024  
     axis 0 0 0   XYZ
    dof ry rz
    limits (-20.0 10.0)
           (0.0 20.0)
  end
  begin
     id 18 
     name lhumerus
     direction 1 -4.48961e-011 -2.39475e-018   
     length 4.4661   
     axis 180 -30 -90   XYZ
    dof rx ry rz
    limits (-60.0 90.0)
           (-90.0 90.0)
           (-90.0 90.0)
  end
  begin
     id 19
     name lradius
     direction 1 -4.48961e-011 9.29328e-028   
     length 3.41414   
     axis 180 -30 -90   XYZ
    dof rx
    limits (-10.0 170.0)
  end
  begin
     id 20
     name lwrist
     direction 1 -4.48985e-011 1.53461e-026   
     length 1.70707   
     axis -1.09697e-014 90 90   XYZ
    dof ry
    limits (-180.0 0.0)
 end
  begin
     id 21 
     name lhand
     direction 1 -4.48966e-011 3.06923e-026   
     length 0.328298   
     axis -1.95843e-014 90 90   XYZ
    dof rx rz
    limits (-90.0 90.0)
           (-45.0 45.0)
  end
  begin
     id 22 
     name lfingers
     direction 1 -4.48893e-011 6.13845e-026   
     length 0.264682   
     axis -3.91686e-014 90 90   XYZ
    dof rx
    limits (0.0 90.0)
  end
  begin
     id 23
     name lthumb
     direction 0.707107 -6.34876e-011 0.707107   
     length 0.380032   
     axis -90 45 2.85299e-015   XYZ
    dof rx rz
    limits (-45.0 45.0)
           (-45.0 45.0)
  end
  begin
     id 24 
     name rclavicle
     direction -0.936955 0.347862 -0.0332887   
     length 3.26927  
     axis 0 0 0   XYZ 
    dof ry rz
    limits (-10.0 20.0)
           (-20.0 0.0)
  end
  begin
     id 25 
     name rhumerus
     direction -1 -4.4896e-011 1.78637e-018  
     length 4.40431   
     axis 180 30 90   XYZ
    dof rx ry rz
    limits (-90.0 60.0)
           (-90.0 90.0)
           (-90.0 90.0)
  end
  begin
     id 26 
     name rradius
     direction -1 -4.48955e-011 9.34036e-027   
     length 3.04688   
     axis 180 30 90   XYZ
    dof rx
    limits (-10.0 170.0)
  end
  begin
     id 27 
     name rwrist
     direction -1 -4.49011e-011 1.53461e-026   
     length 1.52344   
     axis -1.09697e-014 -90 -90   XYZ
    dof ry
    limits (-180.0 0.0)
  end
  begin
     id 28
     name rhand
     direction -1 -4.48834e-011 3.06923e-026   
     length 0.500489   
     axis -1.95843e-014 -90 -90   XYZ
    dof rx rz
    limits (-90.0 90.0)
           (-45.0 45.0)
  end
  begin
     id 29
     name rfingers
     direction -1 -4.48967e-011 6.13845e-026   
     length 0.403507   
     axis -3.91686e-014 -90 -90   XYZ
    dof rx
    limits (0.0 90.0)
  end
  begin
     id 30
     name rthumb
     direction -0.707107 -6.34826e-011 0.707107   
     length 0.579358   
     axis -90 -45 -2.85299e-015   XYZ
    dof rx rz
    limits (-45.0 45.0)
           (-45.0 45.0)
  end
:hierarchy
  begin
    root lhipjoint rhipjoint lowerback
    lhipjoint lfemur
    lfemur ltibia
    ltibia lfoot
    lfoot ltoes
    rhipjoint rfemur
    rfemur rtibia
    rtibia rfoot
    rfoot rtoes
    lowerback upperback
    upperback thorax
    thorax lowerneck lclavicle rclavicle
    lowerneck upperneck
    upperneck head
    lclavicle lhumerus
    lhumerus lradius
    lradius lwrist
    lwrist lhand lthumb
    lhand lfingers
    rclavicle rhumerus
    rhumerus rradius
    rradius rwrist
    rwrist rhand rthumb
    rhand rfingers
  end

#!OML:ASF H:\IndianDance\Patient Classification 1\Patient 1\Session 1\dancer.ASF
:FULLY-SPECIFIED
:DEGREES
562
root 8.94887 13.9581 1.84174 172.862 -82.1854 -165.979
lowerback 12.4368 1.47839 -1.41732
upperback -6.76077 1.64016 -0.211402
thorax -14.5954 0.855816 0.163795
lowerneck -11.3057 -10.9288 -5.22502
upperneck 12.831 -14.1853 1.45762
head 6.21054 -7.04216 0.00847228
rclavicle 3.23025e-014 -2.78299e-015
rhumerus 4.66238 0.543209 -47.7248
rradius 103.663
rwrist -17.8944
rhand -44.2936 53.7824
rfingers 7.12502
rthumb -17.1038 24.5152
lclavicle 3.23025e-014 -2.78299e-015
lhumerus -4.46439 -27.8103 17.8807
lradius 97.3098
lwrist 30.3602
lhand -30.1773 68.2029
lfingers 7.12502
lthumb -3.48867 -98.1541
rfemur -64.4828 -25.1704 22.472
rtibia 86.8854
rfoot -11.7972 -9.68774
rtoes 18.2362
lfemur -32.4937 27.6792 -23.3599
ltibia 64.8962
lfoot -32.8727 16.4542
ltoes 4.90663
563
root 8.91233 13.9814 1.84685 174.087 -81.9333 -167.217
lowerback 12.3035 1.38001 -1.57658
upperback -6.84314 1.48901 -0.101359
thorax -14.6157 0.807558 0.416145
lowerneck -11.1538 -11.203 -5.28644
upperneck 12.5356 -14.5383 1.42609
head 6.10397 -7.22094 -0.00838124
rclavicle -2.00027e-014 -1.63003e-014
rhumerus 6.00755 -0.766718 -48.5238
rradius 101.73
rwrist -20.0977
rhand -44.3108 52.6921
rfingers 7.12502
rthumb -17.1204 23.4264
lclavicle -2.00027e-014 -1.63003e-014
lhumerus -4.26376 -28.7225 16.6986
lradius 98.9039
lwrist 29.1582
lhand -30.5861 67.1732
lfingers 7.12502
lthumb -3.88343 -97.1176
rfemur -64.9685 -24.8812 22.1933
rtibia 85.1885
rfoot -12.3263 -10.3931
rtoes 17.1801
lfemur -32.0489 27.7469 -23.4786
ltibia 64.4055
lfoot -32.802 16.6573
ltoes 5.0237
564
root 8.87467 14.0065 1.84947 175.115 -81.6808 -168.244
lowerback 12.155 1.28354 -1.71858
upperback -6.9268 1.34226 -0.00360672
thorax -14.6257 0.758854 0.643954
lowerneck -11.0076 -11.4609 -5.30815
upperneck 12.2381 -14.8794 1.42077
head 5.99666 -7.39036 -0.0211382
rclavicle 5.57839e-015 3.18055e-015
rhumerus 7.40371 -2.02873 -49.2858
rradius 99.7234
rwrist -22.3613
rhand -44.2975 51.5904
rfingers 7.12502
rthumb -17.1075 22.3236
lclavicle 5.57839e-015 3.18055e-015
lhumerus -3.98991 -29.6185 15.4895
lradius 100.425
lwrist 27.9317
lhand -31.0965 66.0693
lfingers 7.12502
lthumb -4.37633 -96.0041
rfemur -65.2928 -24.5166 21.8892
rtibia 83.1883
rfoot -12.8056 -10.9574
rtoes 15.8638
lfemur -31.6012 27.8307 -23.5681
ltibia 63.8868
lfoot -32.7082 16.8481
ltoes 5.09577
565
root 8.83563 14.0334 1.85012 175.907 -81.4199 -169.03
lowerback 11.9896 1.19178 -1.82369
upperback -7.00488 1.20758 0.0810971
thorax -14.6161 0.711194 0.833382
lowerneck -10.8836 -11.7037 -5.30295
upperneck 11.9581 -15.2085 1.44648
head 5.8988 -7.55044 -0.0284235
rclavicle 1.34801e-014 7.15625e-015
rhumerus 8.84268 -3.25754 -50.018
rradius 97.6554
rwrist -24.6965
rhand -44.2611 50.4809
rfingers 7.12502
rthumb -17.0726 21.2111
lclavicle 1.34801e-014 7.15625e-015
lhumerus -3.63781 -30.4931 14.255
lradius 101.873
lwrist 26.6704
lhand -31.6792 64.8822
lfingers 7.12502
lthumb -4.93899 -94.8047
rfemur -65.4325 -24.0808 21.5643
rtibia 80.8873
rfoot -13.2428 -11.4381
rtoes 14.413
lfemur -31.1363 27.9411 -23.6142
ltibia 63.3404
lfoot -32.5993 17.0177
ltoes 5.14877
566
root 8.79514 14.0621 1.84915 176.469 -81.1394 -169.581
lowerback 11.8174 1.11033 -1.88299
upperback -7.08529 1.09361 0.15246
thorax -14.6031 0.667607 0.976654
lowerneck -10.7559 -11.9307 -5.29323
upperneck 11.6954 -15.524 1.51481
head 5.8088 -7.70111 -0.0222409
rclavicle 3.75206e-015 -1.19271e-015
rhumerus 10.2985 -4.45867 -50.7323
rradius 95.5423
rwrist -27.1015
rhand -44.2028 49.325
rfingers 7.12502
rthumb -17.0165 20.0503
lclavicle 3.75206e-015 -1.19271e-015
lhumerus -3.21454 -31.3636 13.0048
lradius 103.25
lwrist 25.3693
lhand -32.3616 63.6743
lfingers 7.12502
lthumb -5.59785 -93.5804
rfemur -65.3787 -23.5746 21.2263
rtibia 78.2923
rfoot -13.6436 -11.8994
rtoes 12.9868
lfemur -30.6504 28.0877 -23.6129
ltibia 62.7672
lfoot -32.4754 17.1729
ltoes 5.17012
567
root 8.75307 14.0924 1.84688 176.82 -80.8432 -169.923
lowerback 11.6393 1.03942 -1.89229
upperback -7.16505 1.00146 0.211407
thorax -14.5843 0.62824 1.07225
lowerneck -10.6466 -12.1455 -5.28233
upperneck 11.4736 -15.8271 1.60671
head 5.73665 -7.84401 -0.0104241
rclavicle -1.01629e-014 4.37326e-015
rhumerus 11.7677 -5.6499 -51.4405
rradius 93.3922
rwrist -29.5665
rhand -44.0919 47.9993
rfingers 7.12502
rthumb -16.9097 18.7155
lclavicle -1.01629e-014 4.37326e-015
lhumerus -2.72318 -32.2257 11.7487
lradius 104.555
lwrist 24.017
lhand -33.1541 62.4664
lfingers 7.12502
lthumb -6.36299 -92.3509
rfemur -65.1248 -23.0199 20.882
rtibia 75.4138
rfoot -14.0152 -12.3889
rtoes 11.6776
lfemur -30.1399 28.2623 -23.5651
ltibia 62.1644
lfoot -32.3223 17.3428
ltoes 5.09803
568
root 8.70936 14.1241 1.84327 176.995 -80.5352 -170.089
lowerback 11.4546 0.978561 -1.856
upperback -7.24784 0.929691 0.261113
thorax -14.564 0.593036 1.12662
lowerneck -10.5458 -12.3473 -5.28173
upperneck 11.2984 -16.1141 1.71168
head 5.68243 -7.97871 0.00598152
rclavicle 2.49972e-014 -3.77691e-015
rhumerus 13.2352 -6.83585 -52.1466
rradius 91.2162
rwrist -32.0515
rhand -43.9212 46.3798
rfingers 7.12502
rthumb -16.7453 17.082
lclavicle 2.49972e-014 -3.77691e-015
lhumerus -2.18212 -33.0851 10.5041
lradius 105.796
lwrist 22.598
lhand -34.0888 61.2944
lfingers 7.12502
lthumb -7.26528 -91.1497
rfemur -64.6723 -22.4298 20.5369
rtibia 72.2676
rfoot -14.3507 -12.9604
rtoes 10.5665
lfemur -29.6045 28.4578 -23.4751
ltibia 61.533
lfoot -32.1481 17.5208
ltoes 4.95891
569
root 8.66391 14.1569 1.83799 177.019 -80.2342 -170.104
lowerback 11.262 0.922675 -1.78025
upperback -7.33314 0.870449 0.304067
thorax -14.541 0.559091 1.14804
lowerneck -10.4616 -12.5369 -5.29075
upperneck 11.1788 -16.3838 1.80988
head 5.64856 -8.10564 0.0201379
rclavicle -3.6154e-015 1.49089e-014
rhumerus 14.6988 -8.02433 -52.8623
rradius 89.013
rwrist -34.5291
rhand -43.6566 44.3764
rfingers 7.12502
rthumb -16.4906 15.0572
lclavicle -3.6154e-015 1.49089e-014
lhumerus -1.5957 -33.9381 9.28557
lradius 106.964
lwrist 21.0991
lhand -35.0934 60.0723
lfingers 7.12502
lthumb -8.23491 -270.108
rfemur -64.0158 -21.8237 20.1896
rtibia 68.8726
rfoot -14.6776 -13.6227
rtoes 9.66983
lfemur -29.0423 28.6528 -23.3443
ltibia 60.8713
lfoot -31.9473 17.7167
ltoes 4.76228
570
root 8.61654 14.1908 1.83087 176.968 -79.9502 -170.043
lowerback 11.0566 0.86865 -1.68227
upperback -7.42428 0.816337 0.342092
thorax -14.5164 0.524735 1.15008
lowerneck -10.3903 -12.7117 -5.3133
upperneck 11.1187 -16.6308 1.88882
head 5.63461 -8.22307 0.0293764
rclavicle 2.82895e-014 -2.18663e-015
rhumerus 16.1568 -9.20801 -53.5972
rradius 86.7791
rwrist -36.9716
rhand -43.2751 41.9442
rfingers 7.12502
rthumb -16.1233 12.5949
lclavicle 2.82895e-014 -2.18663e-015
lhumerus -0.98619 -34.7904 8.10301
lradius 108.069
lwrist 19.5435
lhand -36.2293 58.7985
lfingers 7.12502
lthumb -9.3311 -271.428
rfemur -63.1639 -21.2142 19.8318
rtibia 65.2547
rfoot -14.9976 -14.3606
rtoes 8.94918
lfemur -28.4552 28.8356 -23.1874
ltibia 60.1787
lfoot -31.7244 17.9249
ltoes 4.51706
